<mxfile host="app.diagrams.net" modified="2021-03-25T15:32:16.205Z" agent="5.0 (Windows NT 10.0; Win64; x64) AppleWebKit/537.36 (KHTML, like Gecko) Chrome/89.0.4389.90 Safari/537.36 Edg/89.0.774.57" etag="60mCPoygtLmAejU2ageB" version="14.5.1" type="github">
  <diagram id="OI1YWC0y5vl6Mjntzopj" name="Page-1">
    <mxGraphModel dx="2031" dy="1183" grid="1" gridSize="10" guides="1" tooltips="1" connect="1" arrows="1" fold="1" page="1" pageScale="1" pageWidth="850" pageHeight="1100" math="0" shadow="0">
      <root>
        <mxCell id="0" />
        <mxCell id="1" parent="0" />
        <mxCell id="h8MA5KRLI3EX3DrdTBlp-3" value="" style="rounded=1;whiteSpace=wrap;html=1;" vertex="1" parent="1">
          <mxGeometry x="140" y="510" width="470" height="310" as="geometry" />
        </mxCell>
        <mxCell id="h8MA5KRLI3EX3DrdTBlp-1" value="" style="rounded=1;whiteSpace=wrap;html=1;" vertex="1" parent="1">
          <mxGeometry x="215" y="50" width="320" height="120" as="geometry" />
        </mxCell>
        <mxCell id="h8MA5KRLI3EX3DrdTBlp-2" value="" style="rounded=1;whiteSpace=wrap;html=1;" vertex="1" parent="1">
          <mxGeometry x="215" y="280" width="320" height="120" as="geometry" />
        </mxCell>
        <mxCell id="h8MA5KRLI3EX3DrdTBlp-4" value="" style="endArrow=classic;startArrow=classic;html=1;exitX=0.5;exitY=0;exitDx=0;exitDy=0;entryX=0.5;entryY=1;entryDx=0;entryDy=0;" edge="1" parent="1" source="h8MA5KRLI3EX3DrdTBlp-2" target="h8MA5KRLI3EX3DrdTBlp-1">
          <mxGeometry width="50" height="50" relative="1" as="geometry">
            <mxPoint x="380" y="270" as="sourcePoint" />
            <mxPoint x="530" y="180" as="targetPoint" />
          </mxGeometry>
        </mxCell>
        <mxCell id="h8MA5KRLI3EX3DrdTBlp-6" value="" style="endArrow=classic;startArrow=classic;html=1;entryX=0.5;entryY=1;entryDx=0;entryDy=0;exitX=0.5;exitY=0;exitDx=0;exitDy=0;" edge="1" parent="1" source="h8MA5KRLI3EX3DrdTBlp-3" target="h8MA5KRLI3EX3DrdTBlp-2">
          <mxGeometry width="50" height="50" relative="1" as="geometry">
            <mxPoint x="330" y="500" as="sourcePoint" />
            <mxPoint x="380" y="450" as="targetPoint" />
          </mxGeometry>
        </mxCell>
        <mxCell id="h8MA5KRLI3EX3DrdTBlp-8" value="" style="shape=image;verticalLabelPosition=bottom;labelBackgroundColor=#ffffff;verticalAlign=top;aspect=fixed;imageAspect=0;image=https://www.distrelec.biz/Web/WebShopImages/landscape_large/3-/03/Raspberry%20Pi-RASPBERRY-PI-4-CASE-RW-30152783-03.jpg;" vertex="1" parent="1">
          <mxGeometry x="249.99999999999997" y="295" width="160.82" height="90" as="geometry" />
        </mxCell>
        <mxCell id="h8MA5KRLI3EX3DrdTBlp-9" value="" style="shape=image;verticalLabelPosition=bottom;labelBackgroundColor=#ffffff;verticalAlign=top;aspect=fixed;imageAspect=0;image=https://upload.wikimedia.org/wikipedia/commons/3/38/Arduino_Uno_-_R3.jpg;" vertex="1" parent="1">
          <mxGeometry x="240" y="520" width="100" height="100" as="geometry" />
        </mxCell>
        <mxCell id="h8MA5KRLI3EX3DrdTBlp-13" value="" style="shape=image;verticalLabelPosition=bottom;labelBackgroundColor=#ffffff;verticalAlign=top;aspect=fixed;imageAspect=0;image=http://img.dxcdn.com/productimages/sku_440175_1.jpg;" vertex="1" parent="1">
          <mxGeometry x="230" y="680" width="80" height="80" as="geometry" />
        </mxCell>
        <mxCell id="h8MA5KRLI3EX3DrdTBlp-14" value="" style="shape=image;verticalLabelPosition=bottom;labelBackgroundColor=#ffffff;verticalAlign=top;aspect=fixed;imageAspect=0;image=https://www.safety.com/wp-content/uploads/2019/08/simplisafe-motion-sensor-min-300x300.jpg;" vertex="1" parent="1">
          <mxGeometry x="395" y="680" width="90" height="90" as="geometry" />
        </mxCell>
        <mxCell id="h8MA5KRLI3EX3DrdTBlp-15" value="" style="shape=image;verticalLabelPosition=bottom;labelBackgroundColor=#ffffff;verticalAlign=top;aspect=fixed;imageAspect=0;image=https://cdn.antratek.nl/media/product/5d4/nodemcu-v2-lua-based-esp8266-development-kit-16608-42d.jpg;" vertex="1" parent="1">
          <mxGeometry x="380" y="530" width="120" height="90" as="geometry" />
        </mxCell>
        <mxCell id="h8MA5KRLI3EX3DrdTBlp-16" value="&lt;font style=&quot;font-size: 21px&quot;&gt;IOT Devices&lt;/font&gt;" style="text;html=1;strokeColor=none;fillColor=none;align=center;verticalAlign=middle;whiteSpace=wrap;rounded=0;" vertex="1" parent="1">
          <mxGeometry x="630" y="610" width="100" height="60" as="geometry" />
        </mxCell>
        <mxCell id="h8MA5KRLI3EX3DrdTBlp-17" value="&lt;font style=&quot;font-size: 21px&quot;&gt;Edge Device&lt;/font&gt;" style="text;html=1;strokeColor=none;fillColor=none;align=center;verticalAlign=middle;whiteSpace=wrap;rounded=0;" vertex="1" parent="1">
          <mxGeometry x="570" y="310" width="100" height="60" as="geometry" />
        </mxCell>
        <mxCell id="h8MA5KRLI3EX3DrdTBlp-18" value="&lt;font style=&quot;font-size: 15px&quot;&gt;Raspberry Pi&lt;/font&gt;" style="text;html=1;strokeColor=none;fillColor=none;align=center;verticalAlign=middle;whiteSpace=wrap;rounded=0;" vertex="1" parent="1">
          <mxGeometry x="390" y="310" width="150" height="60" as="geometry" />
        </mxCell>
        <mxCell id="h8MA5KRLI3EX3DrdTBlp-19" style="edgeStyle=orthogonalEdgeStyle;rounded=0;orthogonalLoop=1;jettySize=auto;html=1;exitX=0.5;exitY=1;exitDx=0;exitDy=0;" edge="1" parent="1" source="h8MA5KRLI3EX3DrdTBlp-18" target="h8MA5KRLI3EX3DrdTBlp-18">
          <mxGeometry relative="1" as="geometry" />
        </mxCell>
        <mxCell id="h8MA5KRLI3EX3DrdTBlp-20" value="&lt;font style=&quot;font-size: 15px&quot;&gt;Arduino&lt;/font&gt;" style="text;html=1;strokeColor=none;fillColor=none;align=center;verticalAlign=middle;whiteSpace=wrap;rounded=0;" vertex="1" parent="1">
          <mxGeometry x="215" y="605" width="150" height="35" as="geometry" />
        </mxCell>
        <mxCell id="h8MA5KRLI3EX3DrdTBlp-21" value="&lt;font style=&quot;font-size: 15px&quot;&gt;NodeMcu ESP8266&lt;/font&gt;" style="text;html=1;strokeColor=none;fillColor=none;align=center;verticalAlign=middle;whiteSpace=wrap;rounded=0;" vertex="1" parent="1">
          <mxGeometry x="370" y="610" width="150" height="35" as="geometry" />
        </mxCell>
        <mxCell id="h8MA5KRLI3EX3DrdTBlp-23" value="&lt;font style=&quot;font-size: 15px&quot;&gt;Speaker module&lt;/font&gt;" style="text;html=1;strokeColor=none;fillColor=none;align=center;verticalAlign=middle;whiteSpace=wrap;rounded=0;" vertex="1" parent="1">
          <mxGeometry x="200" y="770" width="150" height="35" as="geometry" />
        </mxCell>
        <mxCell id="h8MA5KRLI3EX3DrdTBlp-24" value="&lt;font style=&quot;font-size: 15px&quot;&gt;Motion Detector&lt;/font&gt;" style="text;html=1;strokeColor=none;fillColor=none;align=center;verticalAlign=middle;whiteSpace=wrap;rounded=0;" vertex="1" parent="1">
          <mxGeometry x="365" y="770" width="150" height="35" as="geometry" />
        </mxCell>
        <mxCell id="h8MA5KRLI3EX3DrdTBlp-26" value="" style="endArrow=classic;html=1;entryX=0.5;entryY=0;entryDx=0;entryDy=0;" edge="1" parent="1" target="h8MA5KRLI3EX3DrdTBlp-13">
          <mxGeometry width="50" height="50" relative="1" as="geometry">
            <mxPoint x="360" y="640" as="sourcePoint" />
            <mxPoint x="260" y="630" as="targetPoint" />
            <Array as="points">
              <mxPoint x="270" y="640" />
            </Array>
          </mxGeometry>
        </mxCell>
        <mxCell id="h8MA5KRLI3EX3DrdTBlp-28" value="" style="endArrow=classic;html=1;entryX=0.5;entryY=0;entryDx=0;entryDy=0;" edge="1" parent="1" target="h8MA5KRLI3EX3DrdTBlp-14">
          <mxGeometry width="50" height="50" relative="1" as="geometry">
            <mxPoint x="360" y="639.9999999999998" as="sourcePoint" />
            <mxPoint x="270" y="679.9999999999998" as="targetPoint" />
            <Array as="points">
              <mxPoint x="440" y="640" />
            </Array>
          </mxGeometry>
        </mxCell>
        <mxCell id="h8MA5KRLI3EX3DrdTBlp-29" value="" style="endArrow=none;html=1;entryX=1;entryY=0;entryDx=0;entryDy=0;" edge="1" parent="1" target="h8MA5KRLI3EX3DrdTBlp-20">
          <mxGeometry width="50" height="50" relative="1" as="geometry">
            <mxPoint x="365" y="640" as="sourcePoint" />
            <mxPoint x="380" y="600" as="targetPoint" />
          </mxGeometry>
        </mxCell>
        <mxCell id="h8MA5KRLI3EX3DrdTBlp-30" value="&lt;font style=&quot;font-size: 19px&quot;&gt;+&lt;/font&gt;" style="text;html=1;strokeColor=none;fillColor=none;align=center;verticalAlign=middle;whiteSpace=wrap;rounded=0;" vertex="1" parent="1">
          <mxGeometry x="350" y="560" width="40" height="20" as="geometry" />
        </mxCell>
        <mxCell id="h8MA5KRLI3EX3DrdTBlp-31" value="&lt;font style=&quot;font-size: 21px&quot;&gt;Cloud&lt;/font&gt;" style="text;html=1;strokeColor=none;fillColor=none;align=center;verticalAlign=middle;whiteSpace=wrap;rounded=0;" vertex="1" parent="1">
          <mxGeometry x="570" y="80" width="100" height="60" as="geometry" />
        </mxCell>
        <mxCell id="h8MA5KRLI3EX3DrdTBlp-32" value="" style="shape=image;verticalLabelPosition=bottom;labelBackgroundColor=#ffffff;verticalAlign=top;aspect=fixed;imageAspect=0;image=https://i.pcmag.com/imagery/reviews/02yVL9f8Jw1atwoG6sgFZDH-7..1569482492.jpg;" vertex="1" parent="1">
          <mxGeometry x="286.27" y="60" width="177.47" height="100" as="geometry" />
        </mxCell>
      </root>
    </mxGraphModel>
  </diagram>
</mxfile>
